<?xml version="1.0" encoding="UTF-8" standalone="no"?>
<!-- Created with Inkscape (http://www.inkscape.org/) -->

<svg
   id="svg1"
   width="175.52643mm"
   height="23.531349mm"
   version="1.1"
   viewBox="0 0 175.52643 23.531349"
   sodipodi:docname="amazeing_thick_logo_web_optimised.svg"
   inkscape:version="1.3.2 (091e20e, 2023-11-25, custom)"
   xmlns:inkscape="http://www.inkscape.org/namespaces/inkscape"
   xmlns:sodipodi="http://sodipodi.sourceforge.net/DTD/sodipodi-0.dtd"
   xmlns="http://www.w3.org/2000/svg"
   xmlns:svg="http://www.w3.org/2000/svg">
  <sodipodi:namedview
     id="namedview1"
     pagecolor="#ffffff"
     bordercolor="#000000"
     borderopacity="0.25"
     inkscape:showpageshadow="2"
     inkscape:pageopacity="0.0"
     inkscape:pagecheckerboard="0"
     inkscape:deskcolor="#d1d1d1"
     inkscape:document-units="mm"
     inkscape:zoom="0.52004277"
     inkscape:cx="564.37666"
     inkscape:cy="-157.67934"
     inkscape:window-width="1350"
     inkscape:window-height="1212"
     inkscape:window-x="898"
     inkscape:window-y="1162"
     inkscape:window-maximized="0"
     inkscape:current-layer="svg1" />
  <defs
     id="defs1" />
  <g
     id="layer2"
     fill="#50cfb2"
     stroke="#000000"
     stroke-linecap="square"
     stroke-linejoin="round"
     stroke-miterlimit="0"
     transform="translate(-17.198412,-136.79365)"
     inkscape:label="shade">
    <path
       id="path21"
       d="m 189.46,160.06 3,-3 v -10 l -3,3 z m -5,-10 3,-3 h 5 l -3,3 z m -4,6 3,-3 h 3 v 3 z m 0,0 3,-3 v -9 l -3,-0.0854 z m -5,-14 2.3367,-2 -0.05,2 z m 14,2 3,-3 v -4 l -3,3 z m -11.663,-4 3.7133,-3 h 10.95 l -3,3 z"
       stroke-width="0.52917"
       style="paint-order:normal" />
    <path
       id="path16"
       d="m 168.46,160.06 3,-3 v -20 l -3,3 z m -5,-20 3,-3 h 5 l -3,3 z m -11,20 3,-3 v -9 h -3 z m 8,-8 h 3 v -3 z m 0,0 3,-3 v -3 l -3,3 z m -2,-3 v -3 l 3,-3 v 3 z m 0,0 h 2 l 3,-3 h -2 z m -2,-3 h 2 l 3,-3 h -2 z m 0,0 3,-3 v -3 l -3,3 z m 0,-3 3,-3 h -2 l -3,3 z m -2,0 3,-3 v -3 l -3,3 z m -7,-3 3,-3 h 7 l -3,3 z"
       stroke-width="0.52917"
       style="paint-order:normal" />
    <path
       id="path10"
       d="m 140.46,160.06 3,-3.0008 v -20.001 l -3,3.0016 z m -5,-20 3,-2.9928 5,-0.008 -3,3.0008 z"
       stroke-width="0.52917"
       style="paint-order:normal" />
    <path
       id="path8"
       d="m 128.46,160.06 3,-3 v -4 l -2.9889,3 z m -9.9903,-4 2.9903,-3 h 10 l -3,3 z m 0,0 2.9903,-3 v -1 h -2.9903 z m 10.001,-4 2.9889,-3 v -4 l -2.9889,3 z m -10.001,-4 2.9903,-3 h 10 l -2.9889,3 z m 0,0 2.9903,-3 v -1 l -2.9904,1e-5 z m 10.001,-4 2.9889,-3 v -4 l -2.9889,3 z m -13.011,-4 3.0014,-3 h 12.999 l -2.9889,3 z m -2,2 2,-2 v 2 z"
       stroke-width="0.52917"
       style="paint-order:normal" />
    <path
       id="path4"
       d="m 106.46,160.06 3,-3 v -4 l -3,3 z m -11,-12 3,-3 2,2e-5 -10e-6,3 z m 8,4 3,-3 v -1 h -3 z m -4,4 3,-3 v -1 l -3,-4.4e-4 z m 0,0 3,-3 7,1e-5 -3,3 z m 10,-11 v -8 l -3,3 v 8 z m -15,-8 h 15 l -3,3 -15,-1e-5 z m -3,17 3,-3 h 1 v 3 z"
       stroke-width="0.52917"
       style="paint-order:normal" />
    <path
       id="path18"
       d="m 74.462,160.06 3,-3 v -6 h -3 z m 3,-16 v 1 l -3,3 v -4 z m -8,-2 2,-2 v 2 z m 15,18 3,-3 v -18 l -3,3 z m 0,-18 3,-3 h -2 l -3,3 z m -2,0 3,-3 -10e-7,-2 -3,3 z m -11,-2 3,-3 h 11 l -3,3 z m 3,8 h 5 l 10e-7,-3 h -2 z"
       stroke-width="0.52917"
       style="paint-order:normal" />
    <path
       id="path46"
       d="m 52.462,153.06 2,-2 h -2 z m 2,-2 3,-3 h -3 z m -6,-5 3,-3 v -2 l -3,3 z m -2,-2 h 2 l 3,-3 h -2 z m -2,-2 h 2 l 3,-3 h -2 z m 0,0 3,-3 v -2 l -3,3 z m 0,-2 3,-3 h -5 l -3,3 z m 0,20 3,-3 v -9 h -3 z m 18,0 3,-3 v -20 l -3,2.9654 z m -5,-20 3,-3 5,-1e-5 -3,3 z m -2,2 2,-2 -1e-6,2 z m -2,2 2,-2 v 2 z m -5,2 h 5 v -2 l 1,-1 h -3 z m 0,0 3,-3 z m -2,-2 3,-3 v -2 l -3,3 z"
       stroke-width="0.529" />
    <path
       id="path24"
       d="m 22.463,160.06 3,-3 v -6 h -3 z m 3,-16 v 1 l -3,3 v -4 z m -8,-2 2,-2 v 2 z m 15,18 3,-3 v -18 l -3,3 z m 0,-18 3,-3 h -2 l -3,3 z m -2,0 3,-3 -10e-7,-2 -3,3 z m -11,-2 3,-3 h 11 l -3,3 z m 3,8 h 5 l 10e-7,-3 h -2 z"
       stroke-width="0.52917"
       style="paint-order:normal" />
  </g>
  <g
     id="layer1"
     fill="#4a4a4a"
     fill-opacity="0.99684"
     stroke="#000000"
     stroke-miterlimit="0"
     stroke-width="0.52917"
     transform="translate(-17.198412,-136.79365)"
     inkscape:label="front">
    <path
       id="path20"
       d="m 175.46,142.06 2.2867,1e-5 0.05,-2 11.663,-0.0854 v 4.0854 h -9 v 11.915 h 6 v -3.9146 h -2 v -2 h 5 v 10 l -11.95,-1e-5 v -2 l -2.05,1e-5 z"
       stroke-linecap="square"
       stroke-linejoin="round" />
    <path
       id="path14"
       d="m 147.46,140.06 v 20 h 5 v -12 h 3 v 3 h 2 v 3 h 2 c -1e-5,-0.18434 0,2 0,3 h 3 v 3 h 6 v -20 h -5 v 12 h -3 v -3 h -2 v -3 h -2 v -3 h -2 v -3 z"
       stroke-linecap="square"
       stroke-linejoin="round" />
    <path
       id="path9"
       d="m 135.46,140.06 v 20 h 5 v -20.001 z"
       stroke-linecap="square"
       stroke-linejoin="round" />
    <path
       id="path7"
       d="m 115.46,142.06 h -2 v 16 h 2 v 2 h 13 v -4 h -9.9903 v -4 h 10.001 l -0.0111,-4 h -9.9903 v -4 h 9.9903 v -4 l -12.989,7e-5 z"
       stroke-linecap="square"
       stroke-linejoin="round" />
    <path
       id="path2"
       d="m 99.463,156.06 7,0.0819 v 3.9181 h -2 l -11,1e-5 h -2 l -4e-6,-2 v -4 h 4 l -3e-6,-2 v -4 l 4.999997,1e-5 v -4 c 0,0 -8.999997,0 -8.999997,1e-5 v -4 l 14.999997,-2e-5 v 8 l -3,-1e-5 v 2.0014 -0.001 1.9996 l -3.999997,2e-5 z"
       stroke-linecap="square"
       stroke-linejoin="round" />
    <path
       id="path28"
       d="m 74.463,148.06 v -4 h 5 v 4 z m 5,3 -10e-7,9 h 5 v -18 h -2 v -2 h -11 l -2e-6,2 h -2 v 18 h 5 v -9 z"
       stroke-linecap="square"
       stroke-linejoin="round" />
    <path
       id="path12-2-2-8-1-6-3-7"
       d="m 39.462,160.06 h 5 v -12 h 3 l -1e-6,3 c 0.33333,0 2.104,3e-5 2,3e-5 l 1e-6,2 h 3 l 2e-5,-1.9835 c -0.10399,2e-5 1.6666,-0.0165 2,-0.0165 l 10e-7,-3 h 3 v 12 h 5 c 0,-6.6666 0.0423,-13.361 0,-20.027 h -5 v 2.0273 h -2 v 2 h -2 v 1.9726 h -5 v -1.9726 l -2,1e-5 v -2 h -2 v -2 h -5 z"
       stroke-linecap="round"
       stroke-linejoin="bevel" />
    <path
       id="path19-89-4-0"
       d="m 22.463,148.06 v -4 h 5 v 4 z m 5,3 -1e-6,9 h 5 v -18 h -2 v -2 h -11 l -2e-6,2 h -2 v 18 h 5 v -9 z"
       stroke-linecap="square"
       stroke-linejoin="round" />
  </g>
</svg>
