<?xml version="1.0" encoding="UTF-8" standalone="no"?>
<!-- Created with Inkscape (http://www.inkscape.org/) -->

<svg
    width="146.86099mm"
    height="22.833197mm"
    viewBox="0 0 146.86099 22.833197"
    version="1.1"
    id="svg1"
    inkscape:version="1.3.2 (091e20e, 2023-11-25, custom)"
    sodipodi:docname="amazeing_assets_inkscape.svg"
    xmlns:inkscape="http://www.inkscape.org/namespaces/inkscape"
    xmlns:sodipodi="http://sodipodi.sourceforge.net/DTD/sodipodi-0.dtd"
    xmlns="http://www.w3.org/2000/svg"
>
    <sodipodi:namedview
     id="namedview1"
     pagecolor="#ffffff"
     bordercolor="#000000"
     borderopacity="0.25"
     inkscape:showpageshadow="2"
     inkscape:pageopacity="0.0"
     inkscape:pagecheckerboard="0"
     inkscape:deskcolor="#d1d1d1"
     inkscape:document-units="mm"
     inkscape:zoom="1.4142136"
     inkscape:cx="316.43028"
     inkscape:cy="276.47874"
     inkscape:window-width="1693"
     inkscape:window-height="1212"
     inkscape:window-x="1704"
     inkscape:window-y="1114"
     inkscape:window-maximized="0"
     inkscape:current-layer="layer2"
     showgrid="true">
    <inkscape:grid
       id="grid5"
       units="px"
       originx="-11.403572"
       originy="-37.431387"
       spacingx="0.99999998"
       spacingy="1"
       empcolor="#0099e5"
       empopacity="0.30196078"
       color="#0099e5"
       opacity="0.14901961"
       empspacing="4"
       dotted="false"
       gridanglex="30"
       gridanglez="30"
       visible="true" />
  </sodipodi:namedview>
  <defs
     id="defs1" />
  <g
     inkscape:label="Front Layer"
     inkscape:groupmode="layer"
     id="layer1"
     style="fill:#145a2a;fill-opacity:0"
     transform="translate(-11.403572,-37.431388)">
    <path
       style="fill:#4a4a4a;fill-opacity:0.996835;stroke:#000000;stroke-width:0.529167;stroke-linecap:square;stroke-linejoin:round;stroke-miterlimit:0;stroke-dasharray:none"
       d="m 144,41.695969 h 2 v -1.999998 h 10 v 4 h -8 V 55.69597 h 5 v -4 h -2 v -2.000001 h 3 2 v 1.000001 9 h -10 v -1.999999 h -2 z"
       id="path56"
       sodipodi:nodetypes="ccccccccccccccccccc"
       inkscape:label="G Front"
       inkscape:export-filename="..\..\..\..\..\Users\thors\OneDrive\Desktop\test_plain.svg"
       inkscape:export-xdpi="96"
       inkscape:export-ydpi="96" />
    <path
       style="fill:#4a4a4a;fill-opacity:0.996835;stroke:#000000;stroke-width:0.529167;stroke-linecap:square;stroke-linejoin:round;stroke-miterlimit:0;stroke-dasharray:none"
       d="m 119,39.695971 v 20 h 4 V 47.69597 h 3 v 3.000001 h 2 v 2.999998 h 2 c -1e-5,-0.184336 0,2 0,3 h 3 v 3.000002 h 5 v -20 h -4 v 12 h -3 v -3 l -2,10e-7 v -3.000001 h -2 v -3 h -2 v -3 z"
       id="path55"
       sodipodi:nodetypes="ccccccccccccccccccccccccc"
       inkscape:label="N Front" />
    <path
       style="fill:#4a4a4a;fill-opacity:0.996835;stroke:#000000;stroke-width:0.529167;stroke-linecap:square;stroke-linejoin:round;stroke-miterlimit:0;stroke-dasharray:none"
       d="m 109,39.695972 v 19.999999 h 4 V 39.695972 Z"
       id="path52"
       sodipodi:nodetypes="ccccc"
       inkscape:label="I Front" />
    <path
       style="fill:#4a4a4a;fill-opacity:0.996835;stroke:#000000;stroke-width:0.529167;stroke-linecap:square;stroke-linejoin:round;stroke-miterlimit:0;stroke-dasharray:none"
       d="m 93.000002,41.695972 h -2.0417 l 0.0363,15.999999 h 2.00537 l -0.0111,2 h 10.011058 v -4 h -7.999998 v -4 h 7.999998 v -4 h -7.999998 v -3.999999 h 7.999998 v -4 h -9.999998 z"
       id="path43"
       sodipodi:nodetypes="ccccccccccccccccc"
       inkscape:label="E Front" />
    <path
       style="fill:#4a4a4a;fill-opacity:0.996835;stroke:#000000;stroke-width:0.529167;stroke-linecap:square;stroke-linejoin:round;stroke-miterlimit:0;stroke-dasharray:none"
       d="m 80.000001,55.69597 5,0.08188 v 1.918122 1.999998 l -2,2e-6 h -8 -2 l -0.0418,-5.000002 h 2.0418 v -3 h 3 v -4 h 3 v -2 -1.999997 c -2.6666,-0.01594 -5.33336,-0.0027 -8,0 v -4.000002 l 12,-1.4e-5 v 5.000014 2.974739 l -2,0.02526 v 2.001382 -0.0014 2.304047 h -3 z"
       id="path31"
       sodipodi:nodetypes="cccccccccccccccccccccccccc"
       inkscape:label="Z Front" />
    <path
       style="fill:#4a4a4a;fill-opacity:0.996835;stroke:#000000;stroke-width:0.529167;stroke-linecap:square;stroke-linejoin:round;stroke-miterlimit:0;stroke-dasharray:none"
       d="m 15.668157,47.999999 -1e-6,-4 h 4 v 4 m 1e-6,2.999999 -1e-6,9 h 4 V 41.999997 h -1.999999 v -1.999998 h -6.000001 -2.000002 v 1.999998 h -1.999998 v 18.000001 h 4.000001 v -9 z"
       id="path19"
       sodipodi:nodetypes="cccccccccccccccccc"
       inkscape:label="A Front" />
    <path
       style="fill:#4a4a4a;fill-opacity:0.996835;stroke:#000000;stroke-width:0.529167;stroke-linecap:round;stroke-linejoin:bevel;stroke-miterlimit:0;stroke-dasharray:none;stroke-dashoffset:0;stroke-opacity:1;paint-order:normal"
       d="m 45.000001,47.695971 v 12 h 3.999995 c 0,0 -0.007,-19.979047 0,-19.999999 h -1.66816 -2.331835 v 2 h -2 v 2 h -2 v 1.999999 h -3 v -1.999999 h -2 v -2 h -2 v -2 H 30 c -0.0423,6.666461 0,13.33339 0,19.999999 h 4.000001 v -12 h 3 v 2 h 1 v 2 h 1 1 1 v -2 h 1 l 2e-6,-1.999999 v -10e-7 z"
       id="path12-2-2-8-1"
       sodipodi:nodetypes="ccccccccccccccccccccccccccccccccc"
       inkscape:label="M Front" />
    <path
       style="fill:#4a4a4a;fill-opacity:0.996835;stroke:#000000;stroke-width:0.529167;stroke-linecap:square;stroke-linejoin:round;stroke-miterlimit:0;stroke-dasharray:none"
       d="m 58.532103,47.695974 -10e-7,-4 h 4 v 4 m 10e-7,2.999999 -10e-7,9 h 4 V 41.695972 H 64.532103 V 39.695974 H 58.532102 56.5321 v 1.999998 h -1.999998 v 18.000001 h 4.000001 v -9 z"
       id="path19-8"
       sodipodi:nodetypes="cccccccccccccccccc"
       inkscape:label="A Front" />
  </g>
  <g
     inkscape:groupmode="layer"
     id="layer2"
     inkscape:label="Shading Layer"
     inkscape:highlight-color="#3eace3"
     style="display:inline;fill:#00d1b1;fill-opacity:1"
     transform="translate(-11.403572,-37.431388)">
    <path
       id="path63-4"
       style="display:inline;fill:#00d1b1;fill-opacity:1;stroke:#000000;stroke-width:0.529167;stroke-linecap:square;stroke-linejoin:round;stroke-miterlimit:0;stroke-dasharray:none;stroke-opacity:1;paint-order:normal"
       d="m 156,59.695971 2,-2.000001 v -9.999998 l -2,2.000001 z m -5,-10.000001 2,-1.999998 h 5 l -2,2.000001 z m -3,6.000001 2,-2.000001 h 3 v 2.000001 z m 0,0 2,-2.000001 v -9.999998 h -2 z m -4,-14.000001 2,-1.999998 v 1.999998 z m 12,2.000002 2,-2.000002 v -4 l -2,2.000004 z m -10,-4 2,-2.000002 h 10 l -2,2.000004 z"
       inkscape:label="G Shade" />
    <path
       id="path75-7"
       style="display:inline;fill:#00d1b1;fill-opacity:1;stroke:#000000;stroke-width:0.529167;stroke-linecap:square;stroke-linejoin:round;stroke-miterlimit:0;stroke-dasharray:none;stroke-opacity:1;paint-order:normal"
       d="m 138,59.695974 2,-2.000002 V 37.695973 l -2,2.000004 z m -4,-20 2,-2.000001 h 4 l -2,2.000001 z m -11,20 2,-2.000002 v -9.999998 h -2 z m 8,-8 h 3 v -2.000002 h -1 z m 0,0 2,-2.000002 v -2.999999 l -2,2.000001 z m -2,-3.000002 V 45.69597 l 2,-1.999996 v 2.999999 z m 0,0 h 2 l 2,-1.999999 h -2 z m -2,-2.999999 h 2 l 2,-1.999999 h -2 z m 0,0 2,-1.999999 v -3.000002 l -2,2.000001 z m 0,-3 2,-2.000001 h -2 l -2,1.999996 z m -2,0 2,-2.000001 v -2.999999 l -2,2.000001 z m -6,-2.999999 2,-2.000001 h 6 l -2,2.000001 z"
       inkscape:label="N Shade" />
    <path
       id="path54-7"
       style="display:inline;fill:#00d1b1;fill-opacity:1;stroke:#000000;stroke-width:0.529167;stroke-linecap:square;stroke-linejoin:round;stroke-miterlimit:0;stroke-dasharray:none;stroke-opacity:1;paint-order:normal"
       d="m 113,59.696016 2,-2.000001 v -20 l -2,2.000002 z m -4,-19.999999 2,-1.991643 4,-0.0084 -2,2.000001 z"
       inkscape:label="I Shade" />
    <path
       id="path12"
       style="display:inline;fill:#00d1b1;fill-opacity:1;stroke:#000000;stroke-width:0.529167;stroke-linecap:square;stroke-linejoin:round;stroke-miterlimit:0;stroke-dasharray:none;stroke-opacity:1;paint-order:normal"
       d="m 72.999999,54.695974 2,-2 v 2 z m 12,5 2,-2.000001 v -4 l -2,2.000001 z m -7,-12.000001 2,-2 h 1 v 2 z m -3,4 2,-2 h 1 v 2 z m 8,0.304025 2,-2 v -2.304025 h -2 z m -2.99999,3.695975 1.99999,-2.000001 v -1.695974 h -2 z m 0,0 1.99999,-2 h 5 l -2,2.000003 z m 6.99999,-10 v -8.000001 l -2,2.000004 v 7.974737 z m -12,-7.999999 12,-2e-6 -2,2.000004 -12,-2e-6 z"
       inkscape:label="Shading" />
    <path
       id="path51-2"
       style="display:inline;fill:#00d1b1;fill-opacity:1;stroke:#000000;stroke-width:0.529167;stroke-linecap:square;stroke-linejoin:round;stroke-miterlimit:0;stroke-dasharray:none;stroke-opacity:1;paint-order:normal"
       inkscape:label="Shading"
       d="m 103,59.695973 2,-2.000001 v -4 l -2,2.000001 z m -7.999999,-4 2,-2.000001 H 105 l -2,2.000001 z m 0,0 2,-2.000001 v -1.999999 h -2 z m 7.999999,-4 2.03386,-2.000001 -0.0339,-4 -2,2.000002 z m -7.999999,-3.999999 2,-2.000002 H 105 l -2,2.000002 z m 0,0 2,-2.000002 v -1.973593 l -2.00007,-0.02641 z m 7.999999,-4 2,-2.000002 v -4 l -2,2.000002 z m -10.000069,-4 2.00007,-2 9.999999,-2e-6 -2,2.000002 z m -1.99993,1.999999 1.99993,-1.99993 v 1.99993 z"
       sodipodi:nodetypes="cccccccccccccccccccccccccccccccccccccccccccc" />
    <path
       id="path30-5-5"
       style="display:inline;fill:#00d1b1;fill-opacity:1;stroke:#000000;stroke-width:0.529167;stroke-linecap:square;stroke-linejoin:round;stroke-miterlimit:0;stroke-dasharray:none;stroke-opacity:1;paint-order:normal"
       d="m 58.532102,59.695975 2.000001,-2.000001 v -6.999999 h -2.000001 z m 2.000001,-14.000001 h 1.999999 v 2.000002 h -4 z m -2.000001,2.000002 2.000001,-2.000002 v -1.999998 h -2.000001 z m -4,-6.000002 1.999998,-1.999998 v 1.999998 z m 12,18.000001 2.000001,-2.000001 V 39.695976 l -2.000001,1.999998 z m 0,-18.000001 2.000001,-1.999998 h -2.000001 l -1.999999,1.999998 z m -1.999999,0 1.999999,-1.999998 V 37.695974 L 64.5321,39.695976 Z M 56.5321,39.695976 58.532102,37.695974 h 8 l -1.999999,2.000002 z"
       inkscape:label="A Shade" />
    <path
       id="path25"
       style="fill:#00d1b1;fill-opacity:1;stroke:#000000;stroke-width:0.529167;stroke-linecap:square;stroke-linejoin:round;stroke-miterlimit:0;stroke-dasharray:none;stroke-opacity:1;paint-order:normal"
       d="M 43.999999,47.695973 H 42 v 2 z m -2.999998,4 2,-2 v -1 l -1,1 h -1 z m -7,8 2,-2 v -10 h -2 z m 14.999995,0 2,-2.000001 V 37.695973 l -2,2 z m -3.999997,-20 1.999997,-2 h 4 l -2,2 z m -1.999998,2 1.999998,-2 v 2 z m -2.000001,2 2.000001,-2 v 2.000001 z m -3,2 h 3 v -2 h -1.000001 z m 0,0 1.999999,-2 v -2 l -1.999999,2 z m -2.000001,-2 2.000001,-2 m -2.000001,0 v 2 H 38 l 1.999999,-2 H 38 v -2 z m -1.999999,0 h 1.999999 l 2.000001,-2 h -2.000001 z m 0,0 1.999999,-2 v -2 l -1.999999,2 z m -4,-2 1.999999,-2 h 4 l -1.999999,2 z m 12,10 1.999999,-2 z"
       inkscape:label="M Shade" />
    <path
       id="path30-9"
       style="display:inline;fill:#00d1b1;fill-opacity:1;stroke:#000000;stroke-width:0.529167;stroke-linecap:square;stroke-linejoin:round;stroke-miterlimit:0;stroke-dasharray:none;stroke-opacity:1;paint-order:normal"
       d="M 15.668159,60 17.66816,57.999999 V 51 H 15.668159 Z M 17.66816,45.999999 h 1.999999 v 2.000002 h -4 z m -2.000001,2.000002 2.000001,-2.000002 v -1.999998 h -2.000001 z m -4,-6.000002 1.999998,-1.999998 v 1.999998 z M 23.668159,60 25.66816,57.999999 V 40.000001 l -2.000001,1.999998 z m 0,-18.000001 2.000001,-1.999998 h -2.000001 l -1.999999,1.999998 z m -1.999999,0 1.999999,-1.999998 v -2.000002 l -2.000002,2.000002 z m -8.000003,-1.999998 2.000002,-2.000002 h 8 l -1.999999,2.000002 z"
       inkscape:label="A Shade" />
  </g>
</svg>
