<?xml version="1.0" encoding="UTF-8" standalone="no"?>
<!-- Created with Inkscape (http://www.inkscape.org/) -->

<svg
   id="svg1"
   width="146.86116mm"
   height="22.833193mm"
   version="1.1"
   viewBox="0 0 146.86116 22.833193"
   xmlns="http://www.w3.org/2000/svg"
   xmlns:svg="http://www.w3.org/2000/svg">
  <defs
     id="defs1" />
  <g
     id="layer2"
     fill="#00d1b1"
     stroke="#000000"
     stroke-linecap="square"
     stroke-linejoin="round"
     stroke-miterlimit="0"
     stroke-width="0.52917"
     transform="translate(-11.403414,-37.431411)">
    <path
       id="path63-4"
       d="m 156,59.696 2,-2 v -10 l -2,2 z m -5,-10 2,-2 h 5 l -2,2 z m -3,6 2,-2 h 3 v 2 z m 0,0 2,-2 v -10 h -2 z m -4,-14 2,-2 v 2 z m 12,2 2,-2 v -4 l -2,2 z m -10,-4 2,-2 h 10 l -2,2 z"
       style="paint-order:normal" />
    <path
       id="path75-7"
       d="m 138,59.696 2,-2 v -20 l -2,2 z m -4,-20 2,-2 h 4 l -2,2 z m -11,20 2,-2 v -10 h -2 z m 8,-8 h 3 v -2 h -1 z m 0,0 2,-2 v -3 l -2,2 z m -2,-3 v -3 l 2,-2 v 3 z m 0,0 h 2 l 2,-2 h -2 z m -2,-3 h 2 l 2,-2 h -2 z m 0,0 2,-2 v -3 l -2,2 z m 0,-3 2,-2 h -2 l -2,2 z m -2,0 2,-2 v -3 l -2,2 z m -6,-3 2,-2 h 6 l -2,2 z"
       style="paint-order:normal" />
    <path
       id="path54-7"
       d="m 113,59.696 2,-2 v -20 l -2,2 z m -4,-20 2,-1.9916 4,-0.0084 -2,2 z"
       style="paint-order:normal" />
    <path
       id="path12"
       d="m 73,54.696 2,-2 v 2 z m 12,5 2,-2 v -4 l -2,2 z m -7,-12 2,-2 h 1 v 2 z m -3,4 2,-2 h 1 v 2 z m 8,0.30402 2,-2 v -2.304 h -2 z m -3,3.696 2,-2 v -1.696 h -2 z m 0,0 2,-2 h 5 l -2,2 z m 7,-10 v -8 l -2,2 v 7.9747 z m -12,-8 12,-2e-6 -2,2 -12,-2e-6 z"
       style="paint-order:normal" />
    <path
       id="path51-2"
       d="m 103,59.696 2,-2 v -4 l -2,2 z m -8,-4 2,-2 h 8 l -2,2 z m 0,0 2,-2 v -2 h -2 z m 8,-4 2.0339,-2 -0.0339,-4 -2,2 z m -8,-4 2,-2 h 8 l -2,2 z m 0,0 2,-2 v -1.9736 l -2.0001,-0.02641 z m 8,-4 2,-2 v -4 l -2,2 z m -10,-4 2.0001,-2 10,-2e-6 -2,2 z m -1.9999,2 L 93,39.6961 v 1.9999 z"
       style="paint-order:normal" />
    <path
       id="path30-5-5"
       d="m 58.532,59.696 2,-2 v -7 h -2 z m 2,-14 h 2 v 2 h -4 z m -2,2 2,-2 v -2 h -2 z m -4,-6 2,-2 v 2 z m 12,18 2,-2 v -18 l -2,2 z m 0,-18 2,-2 h -2 l -2,2 z m -2,0 2,-2 v -2 l -2,2 z m -8,-2 2,-2 h 8 l -2,2 z"
       style="paint-order:normal" />
    <path
       id="path25"
       d="m 44.499999,47.696 h -2 v 2 z m -3,4 2,-2 v -1 l -1,1 h -1 z m -7,8 2,-2 v -10 h -2 z m 15,0 2,-2 v -20 l -2,2 z m -4,-20 2,-2 h 4 l -2,2 z m -2,2 2,-2 v 2 z m -2,2 2,-2 v 2 z m -3,2 h 3 v -2 h -1 z m 0,0 2,-2 v -2 l -2,2 z m -2,-2 2,-2 m -2,0 v 2 h 2 l 2,-2 h -2 v -2 z m -2,0 h 2 l 2,-2 h -2 z m 0,0 2,-2 v -2 l -2,2 z m -4,-2 2,-2 h 4 l -2,2 z m 12,10 2,-2 z"
       style="paint-order:normal" />
    <path
       id="path30-9"
       d="m 15.668,60 2,-2 v -7 h -2 z m 2,-14 h 2 v 2 h -4 z m -2,2 2,-2 v -2 h -2 z m -4,-6 2,-2 v 2 z m 12,18 2,-2 V 40 l -2,2 z m 0,-18 2,-2 h -2 l -2,2 z m -2,0 2,-2 v -2 l -2,2 z m -8,-2 2,-2 h 8 l -2,2 z"
       style="paint-order:normal" />
  </g>
  <g
     id="layer1"
     fill="#4a4a4a"
     fill-opacity="0.99684"
     stroke="#000000"
     stroke-miterlimit="0"
     stroke-width="0.52917"
     transform="translate(-9.403414,-39.431379)">
    <path
       id="path19-8"
       d="m 56.532001,49.695968 -1e-6,-4 h 4 v 4 m 1e-6,3 -1e-6,9 h 4 v -18 h -2 v -2 h -8 v 2 h -2 v 18 h 4 v -9 z"
       stroke-linecap="square"
       stroke-linejoin="round" />
    <path
       id="path56"
       d="m 142,43.695988 h 2 v -2 h 10 v 4 h -8 v 12 h 5 v -4 h -2 v -2 h 5 v 10 h -10 v -2 h -2 z"
       style="stroke-linecap:square;stroke-linejoin:round" />
    <path
       id="path55"
       d="m 117,41.695988 v 20 h 4 v -12 h 3 v 3 h 2 v 3 h 2 c -1e-5,-0.18434 0,2 0,3 h 3 v 3 h 5 v -20 h -4 v 12 h -3 v -3 l -2,10e-7 v -3 h -2 v -3 h -2 v -3 z"
       style="stroke-linecap:square;stroke-linejoin:round" />
    <path
       id="path52"
       d="m 107,41.695988 v 20 h 4 v -20 z"
       style="stroke-linecap:square;stroke-linejoin:round" />
    <path
       id="path43"
       d="m 91,43.695988 h -2.0417 l 0.0363,16 H 91 l -0.0111,2 h 10.011 v -4 h -8 v -4 h 8 v -4 h -8 v -4 h 8 v -4 h -10 z"
       style="stroke-linecap:square;stroke-linejoin:round" />
    <path
       id="path31"
       d="m 78,57.695988 5,0.08188 v 3.9181 l -2,2e-6 H 71 l -0.0418,-5 H 73 v -3 h 3 v -4 h 3 v -4 c -2.6666,-0.01594 -5.3334,-0.0027 -8,0 v -4 l 12,-1.4e-5 v 7.9748 l -2,0.02526 v 2.0014 -0.0014 2.304 h -3 z"
       style="stroke-linecap:square;stroke-linejoin:round" />
    <path
       id="path19"
       d="m 13.668,49.999988 -10e-7,-4 h 4 v 4 m 1e-6,3 -1e-6,9 h 4 v -18 h -2 v -2 h -8 v 2 h -2 v 18 h 4 v -9 z"
       style="stroke-linecap:square;stroke-linejoin:round" />
    <path
       id="path12-2-2-8-1"
       d="m 43.499999,49.695968 v 12 h 4 c 0,0 -0.007,-19.979 0,-20 h -4 v 2 h -2 v 2 h -2 v 2 h -3 v -2 h -2 v -2 h -2 v -2 h -4 c -0.0423,6.6665 0,13.333 0,20 h 4 v -12 h 3 v 2 h 1 v 2 h 3 v -2 h 1 l 2e-6,-2 v 0 z"
       stroke-linecap="round"
       stroke-linejoin="bevel"
       style="paint-order:normal" />
  </g>
</svg>
